<?xml version="1.0" encoding="UTF-8" standalone="no"?>
<!DOCTYPE svg PUBLIC "-//W3C//DTD SVG 1.1//EN" "http://www.w3.org/Graphics/SVG/1.1/DTD/svg11.dtd">
<svg width="100%" height="100%" viewBox="0 0 1127 855" version="1.1" xmlns="http://www.w3.org/2000/svg" xmlns:xlink="http://www.w3.org/1999/xlink" xml:space="preserve" xmlns:serif="http://www.serif.com/" style="fill-rule:evenodd;clip-rule:evenodd;stroke-linejoin:round;stroke-miterlimit:2;">
    <rect x="196.194" y="162" width="752" height="590" style="fill:rgb(63,61,86);"/>
    <g transform="matrix(1,0,0,1,-36.9032,-22.5)">
        <path d="M600.541,265.129L415.024,265.129C415.022,265.129 415.02,265.129 415.019,265.129C413.784,265.129 412.767,264.113 412.767,262.878C412.767,261.643 413.784,260.626 415.019,260.626C415.02,260.626 415.022,260.626 415.024,260.626L600.541,260.626C601.775,260.629 602.788,261.644 602.788,262.878C602.788,264.111 601.775,265.127 600.541,265.129Z" style="fill:rgb(242,242,242);fill-rule:nonzero;"/>
    </g>
    <g transform="matrix(1,0,0,1,-36.9032,-22.5)">
        <path d="M803.62,289.895L511.835,289.895C510.6,289.895 509.584,288.879 509.584,287.643C509.584,286.408 510.6,285.392 511.835,285.392L803.62,285.392C804.855,285.392 805.872,286.408 805.872,287.643C805.872,288.879 804.855,289.895 803.62,289.895Z" style="fill:rgb(242,242,242);fill-rule:nonzero;"/>
    </g>
    <g transform="matrix(1,0,0,1,-36.9032,-22.5)">
        <path d="M601.442,314.661L415.924,314.661C414.689,314.661 413.673,313.644 413.673,312.409C413.673,311.174 414.689,310.158 415.924,310.158L601.442,310.158C602.677,310.158 603.693,311.174 603.693,312.409C603.693,313.644 602.677,314.661 601.442,314.661Z" style="fill:rgb(242,242,242);fill-rule:nonzero;"/>
    </g>
    <g transform="matrix(1,0,0,1,-36.9032,-22.5)">
        <path d="M803.62,315.111L618.102,315.111C616.867,315.111 615.851,314.095 615.851,312.859C615.851,311.624 616.867,310.608 618.102,310.608L803.62,310.608C804.855,310.608 805.872,311.624 805.872,312.859C805.872,314.095 804.855,315.111 803.62,315.111Z" style="fill:rgb(242,242,242);fill-rule:nonzero;"/>
    </g>
    <g transform="matrix(1,0,0,1,-36.9032,-22.5)">
        <path d="M601.892,339.426L416.374,339.426C415.139,339.426 414.123,338.41 414.123,337.175C414.123,335.94 415.139,334.923 416.374,334.923L601.892,334.923C603.127,334.923 604.144,335.94 604.144,337.175C604.144,338.41 603.127,339.426 601.892,339.426Z" style="fill:rgb(242,242,242);fill-rule:nonzero;"/>
    </g>
    <g transform="matrix(1,0,0,1,-36.9032,-22.5)">
        <path d="M602.342,364.192L416.825,364.192C415.59,364.192 414.573,363.176 414.573,361.941C414.573,360.705 415.59,359.689 416.825,359.689L602.342,359.689C603.578,359.689 604.594,360.705 604.594,361.941C604.594,363.176 603.578,364.192 602.342,364.192Z" style="fill:rgb(242,242,242);fill-rule:nonzero;"/>
    </g>
    <g transform="matrix(1,0,0,1,-36.9032,-22.5)">
        <path d="M686.546,265.579L633.412,265.579C632.177,265.579 631.161,264.563 631.161,263.328C631.161,262.093 632.177,261.077 633.412,261.077L686.546,261.077C687.781,261.077 688.797,262.093 688.797,263.328C688.797,264.563 687.781,265.579 686.546,265.579Z" style="fill:rgb(242,242,242);fill-rule:nonzero;"/>
    </g>
    <g transform="matrix(1,0,0,1,-36.9032,-22.5)">
        <path d="M686.546,339.426L633.412,339.426C632.177,339.426 631.161,338.41 631.161,337.175C631.161,335.94 632.177,334.923 633.412,334.923L686.546,334.923C687.781,334.923 688.797,335.94 688.797,337.175C688.797,338.41 687.781,339.426 686.546,339.426Z" style="fill:rgb(242,242,242);fill-rule:nonzero;"/>
    </g>
    <g transform="matrix(1,0,0,1,-36.9032,-22.5)">
        <path d="M686.546,363.742L633.412,363.742C633.411,363.742 633.409,363.742 633.407,363.742C632.172,363.742 631.156,362.725 631.156,361.49C631.156,360.255 632.172,359.239 633.407,359.239C633.409,359.239 633.411,359.239 633.412,359.239L686.546,359.239C686.548,359.239 686.549,359.239 686.551,359.239C687.786,359.239 688.802,360.255 688.802,361.49C688.802,362.725 687.786,363.742 686.551,363.742C686.549,363.742 686.548,363.742 686.546,363.742Z" style="fill:rgb(242,242,242);fill-rule:nonzero;"/>
    </g>
    <g transform="matrix(1,0,0,1,-36.9032,-22.5)">
        <path d="M775.702,363.742L722.569,363.742C721.335,363.739 720.322,362.724 720.322,361.49C720.322,360.257 721.335,359.241 722.569,359.239L775.702,359.239C775.704,359.239 775.706,359.239 775.707,359.239C776.942,359.239 777.959,360.255 777.959,361.49C777.959,362.725 776.942,363.742 775.707,363.742C775.706,363.742 775.704,363.742 775.702,363.742Z" style="fill:rgb(242,242,242);fill-rule:nonzero;"/>
    </g>
    <g transform="matrix(1,0,0,1,-36.9032,-22.5)">
        <path d="M467.707,289.895L414.573,289.895C413.338,289.895 412.322,288.879 412.322,287.643C412.322,286.408 413.338,285.392 414.573,285.392L467.707,285.392C468.942,285.392 469.958,286.408 469.958,287.643C469.958,288.879 468.942,289.895 467.707,289.895Z" style="fill:rgb(242,242,242);fill-rule:nonzero;"/>
    </g>
    <g transform="matrix(1,0,0,1,-36.9032,-22.5)">
        <path d="M600.766,629.861L415.249,629.861C414.014,629.861 412.997,628.844 412.997,627.609C412.997,626.374 414.014,625.358 415.249,625.358L600.766,625.358C602.002,625.358 603.018,626.374 603.018,627.609C603.018,628.844 602.002,629.861 600.766,629.861Z" style="fill:rgb(242,242,242);fill-rule:nonzero;"/>
    </g>
    <g transform="matrix(1,0,0,1,-36.9032,-22.5)">
        <path d="M599.866,679.392L414.348,679.392C413.113,679.392 412.097,678.376 412.097,677.141C412.097,675.905 413.113,674.889 414.348,674.889L599.866,674.889C601.101,674.889 602.117,675.905 602.117,677.141C602.117,678.376 601.101,679.392 599.866,679.392Z" style="fill:rgb(242,242,242);fill-rule:nonzero;"/>
    </g>
    <g transform="matrix(1,0,0,1,-36.9032,-22.5)">
        <path d="M600.316,704.158L414.798,704.158C414.797,704.158 414.795,704.158 414.794,704.158C413.559,704.158 412.542,703.141 412.542,701.906C412.542,700.671 413.559,699.655 414.794,699.655C414.795,699.655 414.797,699.655 414.798,699.655L600.316,699.655C600.318,699.655 600.319,699.655 600.321,699.655C601.556,699.655 602.572,700.671 602.572,701.906C602.572,703.141 601.556,704.158 600.321,704.158C600.319,704.158 600.318,704.158 600.316,704.158Z" style="fill:rgb(242,242,242);fill-rule:nonzero;"/>
    </g>
    <g transform="matrix(1,0,0,1,-36.9032,-22.5)">
        <path d="M679.566,679.842L626.433,679.842C625.198,679.842 624.181,678.826 624.181,677.591C624.181,676.356 625.198,675.339 626.433,675.339L679.566,675.339C680.802,675.339 681.818,676.356 681.818,677.591C681.818,678.826 680.802,679.842 679.566,679.842Z" style="fill:rgb(242,242,242);fill-rule:nonzero;"/>
    </g>
    <g transform="matrix(1,0,0,1,-36.9032,-22.5)">
        <path d="M679.566,704.158L626.433,704.158C625.198,704.158 624.181,703.141 624.181,701.906C624.181,700.671 625.198,699.655 626.433,699.655L679.566,699.655C680.802,699.655 681.818,700.671 681.818,701.906C681.818,703.141 680.802,704.158 679.566,704.158Z" style="fill:rgb(242,242,242);fill-rule:nonzero;"/>
    </g>
    <g transform="matrix(1,0,0,1,-36.9032,-22.5)">
        <path d="M768.723,679.842L715.589,679.842C714.354,679.842 713.338,678.826 713.338,677.591C713.338,676.356 714.354,675.339 715.589,675.339L768.723,675.339C769.958,675.339 770.974,676.356 770.974,677.591C770.974,678.826 769.958,679.842 768.723,679.842Z" style="fill:rgb(242,242,242);fill-rule:nonzero;"/>
    </g>
    <g transform="matrix(1,0,0,1,-36.9032,-22.5)">
        <path d="M803.845,654.626L512.06,654.626C510.825,654.626 509.809,653.61 509.809,652.375C509.809,651.14 510.825,650.123 512.06,650.123L803.845,650.123C805.08,650.123 806.097,651.14 806.097,652.375C806.097,653.61 805.08,654.626 803.845,654.626Z" style="fill:rgb(242,242,242);fill-rule:nonzero;"/>
    </g>
    <g transform="matrix(1,0,0,1,-36.9032,-22.5)">
        <path d="M467.932,654.626L414.798,654.626C413.563,654.626 412.547,653.61 412.547,652.375C412.547,651.14 413.563,650.123 414.798,650.123L467.932,650.123C469.167,650.123 470.184,651.14 470.184,652.375C470.184,653.61 469.167,654.626 467.932,654.626Z" style="fill:rgb(242,242,242);fill-rule:nonzero;"/>
    </g>
    <g transform="matrix(1,0,0,1,-36.9032,-22.5)">
        <path d="M803.845,729.374L512.06,729.374C512.059,729.374 512.057,729.374 512.055,729.374C510.82,729.374 509.804,728.357 509.804,727.122C509.804,725.887 510.82,724.871 512.055,724.871C512.057,724.871 512.059,724.871 512.06,724.871L803.845,724.871C805.08,724.871 806.097,725.887 806.097,727.122C806.097,728.357 805.08,729.374 803.845,729.374Z" style="fill:rgb(242,242,242);fill-rule:nonzero;"/>
    </g>
    <g transform="matrix(1,0,0,1,-36.9032,-22.5)">
        <path d="M467.932,729.374L414.798,729.374C414.797,729.374 414.795,729.374 414.794,729.374C413.559,729.374 412.542,728.357 412.542,727.122C412.542,725.887 413.559,724.871 414.794,724.871C414.795,724.871 414.797,724.871 414.798,724.871L467.932,724.871C467.934,724.871 467.935,724.871 467.937,724.871C469.172,724.871 470.188,725.887 470.188,727.122C470.188,728.357 469.172,729.374 467.937,729.374C467.935,729.374 467.934,729.374 467.932,729.374Z" style="fill:rgb(242,242,242);fill-rule:nonzero;"/>
    </g>
    <path d="M519.06,401.13L447.014,472.275L519.06,543.42L535.27,527.21L480.786,472.725L535.72,417.79L519.06,401.13Z" style="fill:rgb(108,99,255);fill-rule:nonzero;"/>
    <path d="M625.327,401.13L697.373,472.275L625.327,543.42L609.117,527.21L663.602,472.725L608.667,417.79L625.327,401.13Z" style="fill:rgb(108,99,255);fill-rule:nonzero;"/>
    <circle cx="216.194" cy="177" r="9" style="fill:rgb(108,99,255);"/>
    <circle cx="240.194" cy="177" r="9" style="fill:rgb(108,99,255);"/>
    <circle cx="264.194" cy="177" r="9" style="fill:rgb(108,99,255);"/>
    <rect x="196.194" y="192" width="752" height="3" style="fill-opacity:0.1;"/>
</svg>
