<svg width="283" height="75" viewBox="0 0 283 75" version="1.1" xmlns="http://www.w3.org/2000/svg" xmlns:xlink="http://www.w3.org/1999/xlink"><title>Logo</title><defs><path id="path-1" d="M14.605 17.83H.331V.513h14.274V17.83z"/><path id="path-3" d="M0 .019h111.725V74.83H0V.019z"/></defs><g id="Symbols" stroke="none" stroke-width="1" fill="none" fill-rule="evenodd"><g id="Hero" transform="translate(-499 -232)"><g id="Logo&amp;Tagline-Copy" transform="translate(348 232)"><g id="Logo" transform="translate(151)"><g id="WIZELINE" transform="translate(133)" fill="#FEFEFE"><path id="Fill-1" d="M17.395 34.426h-4.4l-1.841-18.97-2.098 18.97H4.708L.82 0h5.116l1.637 21.71L9.568 0h3.939l1.688 21.71L17.14 0h4.758z"/><path id="Fill-2" d="M28.923 34.426h5.018V0h-5.018z"/><path id="Fill-3" d="M48.166 29.36h6.524v5.066H41.97v-1.809l6.854-27.55h-6.47V0h12.664v1.81z"/><path id="Fill-4" d="M61.04 34.426V0h11.041v4.963h-5.776v9.407h3.833v4.704h-3.833v10.235h5.776v5.117z"/><path id="Fill-5" d="M82.118 34.426V0h3.84v30.86h7.2v3.566z"/><path id="Fill-6" d="M101.188 34.426h4.014V0h-4.014z"/><path id="Fill-7" d="M126.492 34.426l-5.97-17.42-1.69-5.53v22.95h-3.593V0h3.433l5.442 17.679 1.585 5.582V0h3.592v34.426z"/><path id="Fill-8" d="M138.324 34.426V0h11.04v3.463h-7.291V14.94h5.26v3.36h-5.26v12.663h7.291v3.464z"/></g><g id="ACADEMY" transform="translate(133 43)"><g id="Group-12" transform="translate(15.75 .165)"><mask id="mask-2" fill="#fff"><use xlink:href="#path-1"/></mask><path d="M.331 9.17c0-5.144 3.61-8.657 8.202-8.657 2.821 0 4.781 1.43 6.048 3.312l-1.673.98C12 3.397 10.35 2.37 8.533 2.37c-3.492 0-6.146 2.81-6.146 6.8 0 3.966 2.654 6.803 6.146 6.803 1.816 0 3.467-1.004 4.375-2.435l1.697.979c-1.34 1.908-3.25 3.313-6.072 3.313C3.942 17.83.33 14.316.33 9.17" id="Fill-10" fill="#FEFEFE" mask="url(#mask-2)"/></g><path d="M38.823 3.112l-3.395 9.01h6.767l-3.372-9.01zm5.38 14.581l-1.411-3.714h-7.939l-1.41 3.714h-2.271L37.58.953h2.463l6.431 16.74h-2.272z" id="Fill-13" fill="#FEFEFE"/><path d="M60.129 9.336c0-3.614-2.176-6.525-6.121-6.525h-3.467v13.026h3.467c3.874 0 6.12-2.912 6.12-6.501zm-11.572 8.357V.954h5.451c4.95 0 8.178 3.64 8.178 8.382 0 4.77-3.228 8.357-8.178 8.357h-5.45z" id="Fill-15" fill="#FEFEFE"/><path id="Fill-17" fill="#FEFEFE" d="M65.297 17.693V.954h10.448v1.857h-8.464v5.395h8.297v1.857H67.28v5.774h8.464v1.856z"/><path id="Fill-19" fill="#FEFEFE" d="M92.532 17.693V3.916l-5.428 13.777h-.813L80.888 3.916v13.777h-1.984V.954h2.845l4.95 12.599L91.67.954h2.845v16.74z"/><path id="Fill-21" fill="#FEFEFE" d="M102.888 17.693v-7.076L96.6.954h2.32l4.948 7.78 4.95-7.78h2.319l-6.264 9.663v7.076z"/><path d="M6.747 1.35L.513 17.962h2.21l1.373-3.687h7.722l1.372 3.687h2.21L9.142 1.35H6.747zM7.956 3.49l3.28 8.94H4.653l3.303-8.94z" id="Fill-9" fill="#FEFEFE"/></g><g id="BOOK"><path d="M42.544 14.368H23.987c-.857 0-1.552.705-1.552 1.575s.695 1.574 1.552 1.574h18.557c.857 0 1.552-.705 1.552-1.574 0-.87-.695-1.575-1.552-1.575" id="Fill-23" fill="#FEFEFE"/><path d="M42.487 27.492H21.73c-.889 0-1.609.705-1.609 1.575s.72 1.574 1.609 1.574h20.757c.888 0 1.609-.704 1.609-1.574 0-.87-.72-1.575-1.609-1.575" id="Fill-25" fill="#FEFEFE"/><path d="M42.397 40.616H18.99c-.939 0-1.699.706-1.699 1.576 0 .87.76 1.574 1.699 1.574h23.408c.938 0 1.699-.704 1.699-1.574 0-.87-.76-1.576-1.699-1.576" id="Fill-27" fill="#FEFEFE"/><path d="M68.824 14.368H87.38c.857 0 1.552.705 1.552 1.575s-.695 1.574-1.552 1.574H68.824a1.563 1.563 0 0 1-1.552-1.574c0-.87.695-1.575 1.552-1.575" id="Fill-29" fill="#FEFEFE"/><path d="M68.881 27.492h20.757c.888 0 1.609.705 1.609 1.575s-.72 1.574-1.61 1.574H68.882c-.889 0-1.609-.704-1.609-1.574 0-.87.72-1.575 1.61-1.575" id="Fill-31" fill="#FEFEFE"/><path d="M77.098 40.616h15.28c.94 0 1.7.706 1.7 1.576 0 .87-.76 1.574-1.7 1.574h-15.28c-.938 0-1.699-.704-1.699-1.574 0-.87.761-1.576 1.699-1.576" id="Fill-33" fill="#FEFEFE"/><g id="Group-37"><mask id="mask-4" fill="#fff"><use xlink:href="#path-3"/></mask><path d="M74.375 55.41l-7.127-14.05c-.326-.643-.878-1.164-1.567-1.37a2.562 2.562 0 0 0-3.091 1.418L51.42 66.502l-.01.001-5.575-9.939a2.572 2.572 0 0 0-2.242-1.317H42.55v-.001l-36.72-.003-.006-.008L16.216 5.273l.006-.005h37.025l.006.006v32.717a2.617 2.617 0 0 0 2.61 2.625 2.617 2.617 0 0 0 2.61-2.625V5.274l.006-.006h37.025l.005.005 10.392 50.146-.005.006m3.22 5.25c.785 0 1.53-.357 2.025-.97.496-.614.69-1.419.53-2.193L100.184 2.106A2.614 2.614 0 0 0 97.63.018H14.096a2.614 2.614 0 0 0-2.555 2.088L.056 57.33c-.161.774.033 1.579.528 2.192.496.613 1.24.97 2.026.97l39.53.003.005.003 7.304 13.018a2.56 2.56 0 0 0 2.35 1.311 2.565 2.565 0 0 0 2.22-1.526l11.057-24.84h.01l5.441 10.726a2.564 2.564 0 0 0 2.285 1.407" id="Fill-35" fill="#FEFEFE" mask="url(#mask-4)"/></g></g></g></g></g></g></svg>